<svg clip-rule="evenodd" fill-rule="evenodd" stroke-linejoin="round" stroke-miterlimit="2" viewBox="0 0 512 512" xmlns="http://www.w3.org/2000/svg"><path d="m.181.004-.057-.6c-.002-.023-.014-.039-.036-.048l-.012-.006.002-.01h.239l-.002.01-.022.008c-.021.007-.031.023-.03.047l.03.444.184-.368-.009-.075c-.003-.023-.015-.039-.037-.048l-.022-.008.002-.01h.243l-.002.01-.027.01c-.022.008-.031.024-.028.047l.049.444.199-.445c.009-.023.003-.039-.02-.048l-.02-.008.002-.01h.147l-.002.01-.024.008c-.013.005-.024.011-.033.019s-.016.018-.022.031l-.264.596h-.071l-.055-.47-.232.47z" fill="#19181d" fill-rule="nonzero" transform="matrix(478.359 0 0 478.359 9.64346984 412.90167716)"/></svg>